<svg width="18" height="18" viewBox="0 0 18 18" fill="none" xmlns="http://www.w3.org/2000/svg">
<g clip-path="url(#clip0_7159_489)">
<path d="M9 7.5C9 6.30653 8.52589 5.16193 7.68198 4.31802C6.83807 3.47411 5.69347 3 4.5 3H2.25V4.5C2.25 5.69347 2.72411 6.83807 3.56802 7.68198C4.41193 8.52589 5.55653 9 6.75 9H9" stroke="black" stroke-linecap="round" stroke-linejoin="round"/>
<path d="M9 10.5C9 9.30653 9.47411 8.16193 10.318 7.31802C11.1619 6.47411 12.3065 6 13.5 6H15.75V6.75C15.75 7.94347 15.2759 9.08807 14.432 9.93198C13.5881 10.7759 12.4435 11.25 11.25 11.25H9" stroke="black" stroke-linecap="round" stroke-linejoin="round"/>
<path d="M9 15V7.5" stroke="black" stroke-linecap="round" stroke-linejoin="round"/>
</g>
<defs>
<clipPath id="clip0_7159_489">
<rect width="18" height="18" fill="white"/>
</clipPath>
</defs>
</svg>
