<svg width="49" height="48" viewBox="0 0 49 48" fill="none" xmlns="http://www.w3.org/2000/svg">
<rect x="0.333984" width="48" height="48" rx="12" fill="#F2F2F7"/>
<path d="M26.2215 20.1562H19.1352C18.9412 20.1562 18.7837 19.9753 18.7837 19.7812C18.7837 19.5872 18.9412 19.4062 19.1352 19.4062H25.7985C25.6375 19.1562 25.497 18.7188 25.3779 18.4688H19.1352C18.9412 18.4688 18.7837 18.2892 18.7837 18.0938C18.7837 17.8997 18.9412 17.7188 19.1352 17.7188H25.1615C25.0065 17.1562 24.9227 16.4935 24.9227 15.8416C24.9227 14.6505 25.1864 13.5312 25.6758 12.5312H12.5414C11.962 12.5312 11.5527 13.0203 11.5527 13.5998V33.7812H26.045C26.4038 33.7812 26.7478 33.8921 27.0171 34.1267C27.0498 34.1541 27.1004 34.1915 27.1714 34.2717L27.199 34.2856C27.4194 34.5499 27.5527 34.8821 27.5527 35.2293V36.7849C27.5527 37.6959 28.1152 38.9967 28.8652 38.9967V38.9789C27.6777 38.9613 26.7402 37.9873 26.7402 36.7849V35.2293C26.7402 35.0742 26.658 34.9312 26.5669 34.8218C26.5669 34.8218 26.5059 34.7707 26.4862 34.7556C26.3736 34.6537 26.2094 34.5938 26.045 34.5938H9.93617C9.5818 34.5938 9.30273 34.8749 9.30273 35.2293V36.7408C9.30273 37.9785 10.298 38.9688 11.5358 38.9688H28.8483C29.4108 38.9688 29.8635 38.7998 30.2362 38.5072C30.7495 38.1064 31.1152 37.4876 31.1152 36.7845V23.3619C29.0527 22.9683 27.3341 21.8438 26.2215 20.1562ZM15.1487 17.3641C15.5342 17.3641 15.889 17.4921 16.1762 17.706L14.9122 18.9698L14.6843 18.7002C14.5464 18.5371 14.3021 18.5167 14.1394 18.6546C13.9762 18.7926 13.9559 19.0366 14.0937 19.1997L14.5932 19.7902C14.6629 19.8729 14.7642 19.9223 14.8724 19.9269C14.8778 19.9271 14.8832 19.9272 14.8885 19.9272C14.9909 19.9272 15.0892 19.8867 15.1619 19.8141L16.6795 18.2965C16.8026 18.5339 16.8733 18.8029 16.8733 19.0887C16.8733 20.0411 16.1011 20.8134 15.1487 20.8134C14.1962 20.8134 13.4242 20.0412 13.4242 19.0887C13.4242 18.1362 14.1962 17.3641 15.1487 17.3641ZM15.1487 22.852C15.5342 22.852 15.8889 22.9801 16.1762 23.1938L14.9122 24.4578L14.6843 24.1881C14.5464 24.0251 14.3021 24.0046 14.1394 24.1426C13.9762 24.2804 13.9559 24.5245 14.0937 24.6876L14.5932 25.2782C14.6629 25.3607 14.7642 25.4102 14.8724 25.4148C14.8778 25.4151 14.8832 25.4152 14.8885 25.4152C14.9909 25.4152 15.0892 25.3746 15.1619 25.3019L16.6795 23.7844C16.8026 24.0219 16.8733 24.2908 16.8733 24.5766C16.8733 25.5291 16.1011 26.3012 15.1487 26.3012C14.1962 26.3012 13.4242 25.5291 13.4242 24.5766C13.4242 23.6241 14.1962 22.852 15.1487 22.852ZM15.1487 31.789C14.1962 31.789 13.4242 31.0169 13.4242 30.0645C13.4242 29.112 14.1962 28.3399 15.1487 28.3399C15.5342 28.3399 15.8889 28.4679 16.1762 28.6817L14.9122 29.9456L14.6843 29.676C14.5464 29.5129 14.3021 29.4925 14.1394 29.6304C13.9762 29.7682 13.9559 30.0123 14.0937 30.1754L14.5932 30.7659C14.6629 30.8486 14.7642 30.898 14.8724 30.9027C14.8778 30.9028 14.8832 30.9029 14.8885 30.9029C14.9909 30.9029 15.0892 30.8624 15.1619 30.7897L16.6795 29.2723C16.8026 29.5096 16.8733 29.7787 16.8733 30.0646C16.8733 31.0169 16.101 31.789 15.1487 31.789ZM27.8614 31.0938H19.136C18.9418 31.0938 18.7844 30.9442 18.7844 30.75C18.7844 30.5558 18.9418 30.4062 19.136 30.4062H27.8614C28.0555 30.4062 28.213 30.5558 28.213 30.75C28.213 30.9442 28.0555 31.0938 27.8614 31.0938ZM27.8614 29.4062H19.136C18.9418 29.4062 18.7844 29.2567 18.7844 29.0625C18.7844 28.8683 18.9418 28.7188 19.136 28.7188H27.8614C28.0555 28.7188 28.213 28.8683 28.213 29.0625C28.213 29.2567 28.0555 29.4062 27.8614 29.4062ZM27.8614 25.5938H19.136C18.9418 25.5938 18.7844 25.4442 18.7844 25.25C18.7844 25.0558 18.9418 24.9062 19.136 24.9062H27.8614C28.0555 24.9062 28.213 25.0558 28.213 25.25C28.213 25.4442 28.0555 25.5938 27.8614 25.5938ZM28.213 23.5625C28.213 23.7567 28.0555 23.9062 27.8614 23.9062H19.136C18.9418 23.9062 18.7844 23.7567 18.7844 23.5625C18.7844 23.3683 18.9418 23.2188 19.136 23.2188H27.8614C28.0555 23.2188 28.213 23.3683 28.213 23.5625Z" fill="#0F172A"/>
<path d="M32.5384 9.02148C28.754 9.02148 25.6855 12.09 25.6855 15.8756C25.6855 19.6598 28.754 22.7282 32.5384 22.7282C36.3239 22.7282 39.3909 19.6598 39.3909 15.8756C39.3909 12.09 36.3239 9.02148 32.5384 9.02148ZM32.9277 16.7981C32.9277 16.8037 32.9264 16.8108 32.925 16.8163C32.9192 16.9597 32.8327 17.0892 32.7021 17.1497C32.6501 17.1735 32.5934 17.1849 32.5386 17.1849C32.4541 17.1849 32.3697 17.1568 32.3007 17.1019C32.2966 17.099 32.2923 17.0948 32.288 17.0921L30.2673 15.3736L30.2644 15.3722L30.1027 15.2344C29.9395 15.0965 29.9198 14.8519 30.0591 14.6902C30.1969 14.5271 30.3922 14.5074 30.5539 14.6452L32.0527 15.9615V11.9297C32.0527 11.7159 32.2764 11.5429 32.4902 11.5429C32.7039 11.5429 32.9277 11.7159 32.9277 11.9297V16.7981Z" fill="#0F172A"/>
</svg>
