<svg width="48" height="48" viewBox="0 0 48 48" fill="none" xmlns="http://www.w3.org/2000/svg">
<rect width="48" height="48" rx="12" fill="#F2F2F7"/>
<path d="M11.4744 8V10.087H28.1517V8H11.4744ZM8 11.4783V38.6087H17.7827C17.7528 38.8315 17.7284 39.0598 17.7284 39.3043V40H40L39.9593 39.2636C39.8969 38.1658 39.4897 37.2989 38.9142 36.6766C38.3415 36.0543 37.633 35.663 36.9626 35.3533C36.2921 35.0435 35.6461 34.8071 35.1765 34.5543C34.7286 34.3179 34.5088 34.0951 34.4056 33.8505V32.6766C34.8209 32.0761 35.0028 31.3859 35.0571 30.7391C35.3882 30.4457 35.7737 29.9946 35.8823 29.1875C35.9556 28.6087 35.809 28.1712 35.5837 27.8016C35.8958 26.9755 36.0234 25.9783 35.7493 24.9864C35.5918 24.4103 35.2932 23.8451 34.7965 23.4239C34.4083 23.0897 33.8763 22.9049 33.2873 22.8234L32.8421 21.913H32.4078C32.1445 21.913 31.884 21.9429 31.6261 21.981V11.4783H8ZM12.1693 14.9565H14.9489V16.3478H12.1693V14.9565ZM18.4233 14.9565H21.2028V16.3478H18.4233V14.9565ZM24.6772 14.9565H27.4568V16.3478H24.6772V14.9565ZM12.1693 18.4348H14.9489V19.8261H12.1693V18.4348ZM18.4233 18.4348H21.2028V19.8261H18.4233V18.4348ZM24.6772 18.4348H27.4568V19.8261H24.6772V18.4348ZM12.1693 21.913H14.9489V23.3043H12.1693V21.913ZM18.4233 21.913H21.2028V23.3043H18.4233V21.913ZM26.371 21.9918L26.7809 22.8179H27.2098C27.7798 22.8179 28.13 22.981 28.4095 23.231C28.6891 23.4837 28.8927 23.8587 29.0121 24.2989C29.251 25.1793 29.0474 26.3234 28.852 26.6386L28.5995 27.0408L28.8818 27.4239C29.0474 27.644 29.1533 27.8723 29.099 28.1793C29.023 28.6087 28.8683 28.6658 28.5615 28.9321L28.3308 29.1304L28.3227 29.4348C28.2982 30.1168 28.0621 30.8016 27.6658 31.1929L27.4568 31.3967V33.731L27.4975 33.8451C27.7717 34.6087 28.3851 35.0842 29.0094 35.4293C29.6337 35.7745 30.3069 36.0272 30.9149 36.3234C31.5229 36.6196 32.0495 36.9565 32.4133 37.3995C32.6657 37.7038 32.8204 38.1141 32.9154 38.6087H19.2186C19.3136 38.1141 19.4683 37.7038 19.7208 37.3995C20.0845 36.9565 20.6111 36.6196 21.2191 36.3234C21.8271 36.0272 22.5003 35.7745 23.1246 35.4293C23.7489 35.0842 24.3624 34.6087 24.6365 33.8451L24.6772 33.731V31.3207L24.3732 31.1141C24.0529 30.8967 23.5263 30.1005 23.453 29.3859L23.415 29L23.0676 28.8315C22.8695 28.7364 22.6496 28.6984 22.6279 28.1848C22.6279 28.1848 22.6496 28.0516 22.7012 27.9348C22.7555 27.8152 22.8532 27.6902 22.8233 27.7201L23.1572 27.3859L22.9699 26.9511C22.4514 25.7554 22.522 24.5027 23.1219 23.5598C23.6702 22.6957 24.7451 22.1005 26.371 21.9918ZM32.0143 23.3832L32.3834 24.1386H32.8177C33.3443 24.1386 33.6565 24.2772 33.8953 24.481C34.1369 24.6848 34.3079 24.9837 34.4083 25.356C34.6146 26.1005 34.4653 27.1168 34.2292 27.5788L34.0012 28.0326L34.3595 28.3886C34.3133 28.3424 34.5414 28.7201 34.5034 29.0054C34.4138 29.6875 34.3161 29.644 34.0229 29.837L33.7325 30.0299L33.7107 30.3804C33.6782 30.9864 33.3742 31.8967 33.2113 32.0625L33.0159 32.2636V34.1712L33.0566 34.2826C33.3199 35.0163 33.917 35.462 34.5224 35.7826C35.1249 36.1033 35.7818 36.3397 36.3817 36.6168C36.9816 36.894 37.5163 37.2065 37.8936 37.6196C38.1352 37.8804 38.2981 38.2147 38.4148 38.6087H34.3513C34.2373 37.7582 33.9279 37.0544 33.4855 36.5136C32.929 35.8342 32.2124 35.4076 31.5257 35.0734C30.8389 34.7391 30.1739 34.4837 29.6826 34.212C29.213 33.9538 28.9687 33.7065 28.8466 33.413V31.8587C29.327 31.25 29.5794 30.5326 29.65 29.8043C29.9187 29.5679 30.3368 29.1603 30.467 28.4239C30.5729 27.8207 30.3938 27.3288 30.1712 26.9293C30.5403 26.0788 30.6489 25.0163 30.353 23.9321C30.3503 23.9212 30.3449 23.9103 30.3422 23.8995C30.4915 23.8043 30.6815 23.6957 30.8959 23.6114C31.2352 23.4783 31.6315 23.4293 32.0143 23.3832ZM12.1693 25.3913H14.9489V26.7826H12.1693V25.3913ZM18.4233 25.3913H21.2028V26.7826H18.4233V25.3913ZM12.1693 28.8696H14.9489V30.2609H12.1693V28.8696ZM18.4233 28.8696H21.2028V30.2609H18.4233V28.8696ZM12.1693 32.3478H14.9489V33.7391H12.1693V32.3478ZM18.4233 32.3478H21.2028V33.7391H18.4233V32.3478Z" fill="#0F172A"/>
</svg>
