<svg width="49" height="48" viewBox="0 0 49 48" fill="none" xmlns="http://www.w3.org/2000/svg">
<rect x="0.666016" width="48" height="48" rx="12" fill="#F2F2F7"/>
<g clip-path="url(#clip0_2629_3841)">
<path d="M20.577 26.3787C23.1253 26.3787 25.1912 24.3126 25.1912 21.7645C25.1912 19.2162 23.1256 17.1504 20.577 17.1504C18.0285 17.1504 15.9629 19.2162 15.9629 21.7645C15.9629 24.3126 18.0287 26.3787 20.577 26.3787ZM20.3541 22.0842C19.4705 21.7643 18.8982 21.3602 18.8982 20.5777C18.8982 19.854 19.4031 19.2985 20.253 19.1471V18.3222H20.9434V19.105C21.4733 19.1218 21.8353 19.248 22.1044 19.3826L21.8774 20.1569C21.6756 20.0643 21.3051 19.8708 20.7326 19.8708C20.1436 19.8708 19.9333 20.1737 19.9333 20.4598C19.9333 20.8048 20.236 20.9985 20.9514 21.2846C21.8941 21.6381 22.3152 22.0925 22.3152 22.8414C22.3152 23.5566 21.8188 24.188 20.8928 24.3394V25.2061H20.2027V24.3892C19.6725 24.3732 19.1423 24.2215 18.8391 24.0198L19.0667 23.2285C19.3946 23.422 19.866 23.5987 20.3794 23.5987C20.9099 23.5987 21.2716 23.3378 21.2716 22.9341C21.2713 22.5553 20.9767 22.3115 20.3541 22.0842Z" fill="#0F172A"/>
<path d="M27.4589 18.0844C30.0155 18.0844 32.0878 16.0118 32.0878 13.4553C32.0878 10.8987 30.0155 8.82617 27.4589 8.82617C24.9024 8.82617 22.8301 10.8987 22.8301 13.4553C22.8301 16.0118 24.9024 18.0844 27.4589 18.0844ZM25.0278 13.6493H25.5007C25.5007 13.607 25.5007 13.5564 25.5007 13.5141C25.5007 13.4127 25.5092 13.3033 25.5177 13.2104H25.0278V12.6869H25.5933C25.695 12.1717 25.9228 11.7328 26.2267 11.4121C26.6826 10.9057 27.299 10.6185 28.0503 10.6185C28.5567 10.6185 28.9791 10.7452 29.2577 10.8804L29.0467 11.6655C28.8274 11.5476 28.4814 11.4374 28.1011 11.4374C27.6785 11.4374 27.307 11.5894 27.0291 11.9018C26.8513 12.0876 26.7247 12.3662 26.6573 12.6869H28.8694V13.2104H26.5559C26.5394 13.3033 26.5394 13.4045 26.5394 13.5059C26.5394 13.5564 26.5394 13.5987 26.5394 13.6496H28.87V14.1643H26.632C26.6914 14.5275 26.818 14.7977 26.9958 14.992C27.2822 15.3041 27.6878 15.4476 28.1272 15.4476C28.5407 15.4476 28.9285 15.3041 29.1231 15.1947L29.3006 15.9543C29.0219 16.1233 28.5487 16.2923 28.0085 16.2923C27.2401 16.2923 26.5482 15.9881 26.1005 15.4226C25.8304 15.1101 25.6444 14.6878 25.5685 14.1643H25.0275L25.0278 13.6493Z" fill="#0F172A"/>
<path d="M36.6807 20.2208C38.8817 20.2208 40.6661 18.4364 40.6661 16.2354C40.6661 14.0344 38.8817 12.25 36.6807 12.25C34.4797 12.25 32.6953 14.0344 32.6953 16.2354C32.6953 18.4364 34.4797 20.2208 36.6807 20.2208ZM35.7576 13.8728L36.3683 15.1887C36.4991 15.4575 36.5788 15.683 36.6737 15.9155H36.6884C36.7759 15.6975 36.8698 15.4431 36.9939 15.174L37.6265 13.8728H38.5714L37.2991 16.0027H38.2006V16.4462H37.0592V16.9405H38.2006V17.384H37.0592V18.5979H36.2233V17.384H35.0893V16.9405H36.2233V16.4462H35.0893V16.0027H35.9978L34.7913 13.8728H35.7576Z" fill="#0F172A"/>
<path d="M27.9395 23.6348C27.9395 25.9086 29.7829 27.752 32.0564 27.752C34.3305 27.752 36.1737 25.9086 36.1737 23.6348C36.1737 21.3608 34.3305 19.5176 32.0564 19.5176C29.7824 19.5176 27.9395 21.3608 27.9395 23.6348ZM33.4907 21.3404L33.3255 22.0388C33.1826 21.956 32.9651 21.8884 32.6723 21.8884C32.1165 21.8884 31.9135 22.2638 31.9135 22.6995C31.9135 22.9547 31.9512 23.1578 31.9966 23.3753H33.0477V24.0136H32.0789C32.0866 24.2463 32.0866 24.4715 32.0262 24.6818C31.9512 24.9372 31.801 25.155 31.5907 25.3428V25.3578H33.7009V26.1163H30.4116V25.6129C30.8626 25.4032 31.2605 24.9519 31.2605 24.4191C31.2605 24.2765 31.2533 24.156 31.2306 24.0138H30.4798V23.3755H31.1253C31.0876 23.1652 31.0502 22.9176 31.0502 22.6771C31.0502 21.7534 31.7037 21.1528 32.6349 21.1528C33.0402 21.1528 33.3253 21.2429 33.4907 21.3404Z" fill="#0F172A"/>
<path d="M38.6492 29.0488C38.1187 28.6265 37.0919 28.1332 35.9404 28.1332C34.9664 28.1332 33.5549 28.4864 32.356 30.166C31.2775 31.5427 29.9258 32.1 28.828 32.311C28.9266 32.0651 28.9906 31.7697 28.9924 31.352C29.0022 29.0168 27.1409 27.2614 24.5673 27.2497L15.3803 27.2577C14.5181 27.2577 13.6695 27.5121 12.954 27.9727V26.7773H8.66602V39.1716H12.9538V37.8548C13.1158 37.935 13.339 38.0968 13.339 38.0968C14.0771 38.5039 15.2211 39.0036 16.3881 39.0036H24.8282C32.0985 39.0036 37.1179 34.9305 38.9384 32.9129C39.4823 32.3097 40.0458 31.6859 39.981 30.9002C39.9237 30.1982 39.4072 29.6525 38.6492 29.0488ZM11.5177 29.5155H10.019V28.0168H11.5177V29.5155ZM37.8259 31.909C36.1398 33.778 31.4976 37.5052 24.8284 37.5052H16.3883C14.9613 37.5052 13.4246 36.389 13.4107 36.3782C13.2791 36.2812 13.1225 36.2316 12.9646 36.2316C12.9613 36.2316 12.9577 36.2327 12.9538 36.2327V29.6283C13.1179 29.6314 13.2815 29.5842 13.4169 29.4812L13.5807 29.3576C14.0906 28.9704 14.7294 28.757 15.3767 28.757L24.5604 28.7488C26.0258 28.7552 27.5014 29.5966 27.4939 31.3463C27.4939 32.3567 26.8202 32.4085 26.7838 32.4176H20.0517C19.6379 32.4176 19.3025 32.7532 19.3025 33.1668C19.3025 33.5804 19.6379 33.9155 20.0517 33.9155H27.1966L27.5947 33.9145C28.7163 33.9143 31.5409 33.6495 33.5477 31.0744C33.5541 31.0656 33.5614 31.0566 33.5673 31.0476C34.2345 30.1082 35.0328 29.6319 35.9399 29.6319C36.7591 29.6319 37.4595 30.0174 37.715 30.2209C38.4658 30.8187 38.4867 31.0148 38.4872 31.0228C38.4903 31.1737 38.0081 31.7081 37.8259 31.909Z" fill="#0F172A"/>
</g>
<defs>
<clipPath id="clip0_2629_3841">
<rect width="32" height="32" fill="white" transform="translate(8.66602 8)"/>
</clipPath>
</defs>
</svg>
