<svg width="18" height="20" viewBox="0 0 18 20" fill="none" xmlns="http://www.w3.org/2000/svg">
<path d="M14 6C14 6.98891 13.7068 7.95561 13.1573 8.77785C12.6079 9.6001 11.827 10.241 10.9134 10.6194C9.99979 10.9978 8.99445 11.0969 8.02455 10.9039C7.05464 10.711 6.16373 10.2348 5.46447 9.53553C4.7652 8.83627 4.289 7.94536 4.09607 6.97545C3.90315 6.00555 4.00216 5.00021 4.3806 4.08658C4.75904 3.17295 5.3999 2.39206 6.22215 1.84265C7.04439 1.29324 8.01109 1 9 1C10.3261 1 11.5979 1.52678 12.5355 2.46447C13.4732 3.40215 14 4.67392 14 6ZM10 11H8C6.14348 11 4.36301 11.7375 3.05025 13.0503C1.7375 14.363 1 16.1435 1 18V18C1 18.2652 1.10536 18.5196 1.29289 18.7071C1.48043 18.8946 1.73478 19 2 19H16C16.2652 19 16.5196 18.8946 16.7071 18.7071C16.8946 18.5196 17 18.2652 17 18C17 16.1435 16.2625 14.363 14.9497 13.0503C13.637 11.7375 11.8565 11 10 11V11Z" stroke="black" stroke-width="2" stroke-linecap="round" stroke-linejoin="round"/>
</svg>
