<svg width="18" height="18" viewBox="0 0 18 18" fill="none" xmlns="http://www.w3.org/2000/svg">
<path d="M6 8.625L8.25 10.875L12 7.125M9 15.75C7.20979 15.75 5.4929 15.0388 4.22703 13.773C2.96116 12.5071 2.25 10.7902 2.25 9V9C2.25 7.20979 2.96116 5.4929 4.22703 4.22703C5.4929 2.96116 7.20979 2.25 9 2.25V2.25C10.7902 2.25 12.5071 2.96116 13.773 4.22703C15.0388 5.4929 15.75 7.20979 15.75 9V9C15.75 10.7902 15.0388 12.5071 13.773 13.773C12.5071 15.0388 10.7902 15.75 9 15.75V15.75Z" stroke="black" stroke-linecap="round" stroke-linejoin="round"/>
</svg>
