<svg width="35" height="35" viewBox="0 0 35 35" fill="none" xmlns="http://www.w3.org/2000/svg">
<g clip-path="url(#clip0_7115_1485)">
<path d="M34.2709 32.0833L32.8126 29.2629V22.6042C32.8738 20.0113 29.7778 17.6998 26.9792 15.3125" stroke="black" stroke-width="2" stroke-linecap="round" stroke-linejoin="round"/>
<path d="M29.1942 25.5207L25.474 21.7189C25.3081 21.5462 25.1097 21.408 24.8902 21.3124C24.6707 21.2167 24.4344 21.1654 24.195 21.1614C23.9556 21.1574 23.7178 21.2008 23.4952 21.2891C23.2726 21.3774 23.0697 21.5089 22.8982 21.6759C22.7266 21.8429 22.5898 22.0423 22.4956 22.2624C22.4013 22.4825 22.3516 22.7191 22.3492 22.9586C22.3468 23.198 22.3918 23.4356 22.4816 23.6575C22.5714 23.8795 22.7042 24.0815 22.8723 24.252L26.979 28.4374V30.6249C27.2023 31.9295 27.6993 33.172 28.4373 34.2707" stroke="black" stroke-width="2" stroke-linecap="round" stroke-linejoin="round"/>
<path d="M0.729248 2.9165L2.18758 5.73692V12.3957C2.12633 14.9886 5.22237 17.3 8.02091 19.6873" stroke="black" stroke-width="2" stroke-linecap="round" stroke-linejoin="round"/>
<path d="M5.80566 9.479L9.52587 13.2809C9.69177 13.4535 9.89018 13.5917 10.1097 13.6874C10.3292 13.783 10.5654 13.8344 10.8049 13.8384C11.0443 13.8423 11.2821 13.7989 11.5047 13.7106C11.7273 13.6223 11.9302 13.4909 12.1017 13.3238C12.2733 13.1568 12.4101 12.9575 12.5043 12.7373C12.5985 12.5172 12.6483 12.2806 12.6507 12.0412C12.6531 11.8017 12.6081 11.5642 12.5183 11.3422C12.4285 11.1202 12.2957 10.9182 12.1275 10.7478L8.02087 6.56234V4.37484C7.79755 3.07025 7.30054 1.82772 6.56254 0.729004" stroke="black" stroke-width="2" stroke-linecap="round" stroke-linejoin="round"/>
<path d="M8.02075 11.7427V33.5418C8.02075 33.7352 8.09757 33.9207 8.23432 34.0574C8.37107 34.1942 8.55653 34.271 8.74992 34.271H24.7916" stroke="black" stroke-width="2" stroke-linecap="round" stroke-linejoin="round"/>
<path d="M16.0417 3.646H10.9375" stroke="black" stroke-width="2" stroke-linecap="round" stroke-linejoin="round"/>
<path d="M26.9792 23.2577V14.5835" stroke="black" stroke-width="2" stroke-linecap="round" stroke-linejoin="round"/>
<path d="M18.9583 22.604H10.9375" stroke="black" stroke-width="2" stroke-linecap="round" stroke-linejoin="round"/>
<path d="M24.0625 18.229H10.9375" stroke="black" stroke-width="2" stroke-linecap="round" stroke-linejoin="round"/>
<path d="M17.5 26.979H10.9375" stroke="black" stroke-width="2" stroke-linecap="round" stroke-linejoin="round"/>
<path d="M29.8959 6.56234C29.8959 7.71606 29.5538 8.84388 28.9128 9.80316C28.2718 10.7625 27.3608 11.5101 26.2949 11.9516C25.229 12.3931 24.0561 12.5087 22.9246 12.2836C21.793 12.0585 20.7536 11.5029 19.9378 10.6871C19.122 9.87132 18.5664 8.83192 18.3413 7.70036C18.1163 6.56881 18.2318 5.39592 18.6733 4.33002C19.1148 3.26411 19.8625 2.35307 20.8218 1.7121C21.781 1.07112 22.9089 0.729004 24.0626 0.729004" stroke="black" stroke-width="2" stroke-linecap="round" stroke-linejoin="round"/>
<path d="M29.8958 2.1875L24.5787 7.50458C24.511 7.57249 24.4306 7.62636 24.342 7.66312C24.2534 7.69988 24.1584 7.7188 24.0625 7.7188C23.9666 7.7188 23.8716 7.69988 23.783 7.66312C23.6944 7.62636 23.614 7.57249 23.5462 7.50458L21.875 5.83333" stroke="black" stroke-width="2" stroke-linecap="round" stroke-linejoin="round"/>
</g>
<defs>
<clipPath id="clip0_7115_1485">
<rect width="35" height="35" fill="white"/>
</clipPath>
</defs>
</svg>
