<svg width="35" height="35" viewBox="0 0 35 35" fill="none" xmlns="http://www.w3.org/2000/svg">
<g clip-path="url(#clip0_7115_1442)">
<path d="M0.729248 24.9669C0.729248 25.4807 0.830453 25.9895 1.02709 26.4642C1.22372 26.9389 1.51193 27.3703 1.87525 27.7336C2.23858 28.0969 2.66992 28.3851 3.14463 28.5818C3.61934 28.7784 4.12813 28.8796 4.64196 28.8796C5.15578 28.8796 5.66457 28.7784 6.13929 28.5818C6.614 28.3851 7.04533 28.0969 7.40866 27.7336C7.77199 27.3703 8.0602 26.9389 8.25683 26.4642C8.45346 25.9895 8.55467 25.4807 8.55467 24.9669C8.55467 24.4531 8.45346 23.9443 8.25683 23.4696C8.0602 22.9949 7.77199 22.5635 7.40866 22.2002C7.04533 21.8369 6.614 21.5487 6.13929 21.352C5.66457 21.1554 5.15578 21.0542 4.64196 21.0542C4.12813 21.0542 3.61934 21.1554 3.14463 21.352C2.66992 21.5487 2.23858 21.8369 1.87525 22.2002C1.51193 22.5635 1.22372 22.9949 1.02709 23.4696C0.830453 23.9443 0.729248 24.4531 0.729248 24.9669Z" stroke="black" stroke-width="2" stroke-linecap="round" stroke-linejoin="round"/>
<path d="M10.8136 34.0725C10.4189 33.1482 9.82159 32.3244 9.06573 31.6619C8.30988 30.9994 7.41482 30.5153 6.44672 30.2452C5.47861 29.9752 4.46219 29.9261 3.47257 30.1016C2.48294 30.2772 1.54541 30.6728 0.729248 31.2594" stroke="black" stroke-width="2" stroke-linecap="round" stroke-linejoin="round"/>
<path d="M26.4453 24.9669C26.4453 26.0046 26.8575 26.9998 27.5913 27.7336C28.3251 28.4674 29.3203 28.8796 30.358 28.8796C31.3957 28.8796 32.3909 28.4674 33.1247 27.7336C33.8585 26.9998 34.2707 26.0046 34.2707 24.9669C34.2707 23.9292 33.8585 22.934 33.1247 22.2002C32.3909 21.4664 31.3957 21.0542 30.358 21.0542C29.3203 21.0542 28.3251 21.4664 27.5913 22.2002C26.8575 22.934 26.4453 23.9292 26.4453 24.9669Z" stroke="black" stroke-width="2" stroke-linecap="round" stroke-linejoin="round"/>
<path d="M24.1865 34.0725C24.5812 33.1482 25.1786 32.3244 25.9344 31.6619C26.6903 30.9994 27.5853 30.5153 28.5534 30.2452C29.5215 29.9752 30.538 29.9261 31.5276 30.1016C32.5172 30.2772 33.4547 30.6728 34.2709 31.2594" stroke="black" stroke-width="2" stroke-linecap="round" stroke-linejoin="round"/>
<path d="M12.4688 23.8481C12.4688 25.1825 12.9988 26.4622 13.9424 27.4058C14.8859 28.3493 16.1656 28.8794 17.5 28.8794C18.8344 28.8794 20.1141 28.3493 21.0576 27.4058C22.0012 26.4622 22.5312 25.1825 22.5312 23.8481C22.5312 22.5138 22.0012 21.2341 21.0576 20.2905C20.1141 19.347 18.8344 18.8169 17.5 18.8169C16.1656 18.8169 14.8859 19.347 13.9424 20.2905C12.9988 21.2341 12.4688 22.5138 12.4688 23.8481Z" stroke="black" stroke-width="2" stroke-linecap="round" stroke-linejoin="round"/>
<path d="M24.1864 34.0726C23.339 33.1416 22.3066 32.3979 21.1552 31.889C20.0038 31.3801 18.7588 31.1172 17.4999 31.1172C16.2411 31.1172 14.9961 31.3801 13.8447 31.889C12.6933 32.3979 11.6609 33.1416 10.8135 34.0726" stroke="black" stroke-width="2" stroke-linecap="round" stroke-linejoin="round"/>
<path d="M18.2904 1.41312L20.1527 5.07791H23.3231C23.4948 5.07861 23.6624 5.12978 23.8052 5.22507C23.948 5.32035 24.0596 5.45553 24.1262 5.61378C24.1927 5.77203 24.2112 5.94635 24.1794 6.11504C24.1476 6.28373 24.0669 6.43934 23.9473 6.56249L21.0306 9.42812L22.6435 13.1323C22.7167 13.3021 22.7342 13.4907 22.6935 13.6711C22.6529 13.8515 22.5561 14.0143 22.4171 14.1363C22.2782 14.2582 22.1041 14.333 21.92 14.35C21.7359 14.3669 21.5511 14.325 21.3923 14.2304L17.5 12.0385L13.6018 14.226C13.443 14.3206 13.2582 14.3625 13.0741 14.3456C12.89 14.3287 12.7159 14.2539 12.577 14.1319C12.438 14.0099 12.3412 13.8471 12.3006 13.6667C12.2599 13.4863 12.2774 13.2977 12.3506 13.1279L13.9635 9.42374L11.0468 6.55812C10.9272 6.43488 10.8464 6.27914 10.8146 6.11031C10.7829 5.94148 10.8015 5.76704 10.8682 5.60874C10.9349 5.45043 11.0468 5.31526 11.1898 5.22009C11.3328 5.12492 11.5007 5.07395 11.6725 5.07354H14.8414L16.7096 1.41312C16.7837 1.26722 16.8968 1.14469 17.0363 1.05911C17.1758 0.973523 17.3363 0.928223 17.5 0.928223C17.6636 0.928223 17.8241 0.973523 17.9636 1.05911C18.1031 1.14469 18.2162 1.26722 18.2904 1.41312Z" stroke="black" stroke-width="2" stroke-linecap="round" stroke-linejoin="round"/>
<path d="M7.43745 3.16458C7.27342 3.1633 7.11234 3.20815 6.97259 3.29402C6.83283 3.37989 6.72002 3.50331 6.64703 3.6502L4.78474 7.31354H1.61578C1.4437 7.31367 1.27547 7.36454 1.13215 7.45978C0.988834 7.55503 0.87678 7.69042 0.81001 7.84902C0.743239 8.00762 0.724716 8.18239 0.756758 8.35146C0.7888 8.52053 0.869984 8.6764 0.990155 8.79958L3.90099 11.6667L2.28807 15.3694C2.21488 15.5392 2.19737 15.7278 2.23804 15.9082C2.27871 16.0885 2.37547 16.2514 2.51444 16.3734C2.65341 16.4953 2.82745 16.5701 3.01158 16.587C3.19571 16.604 3.38046 16.5621 3.53932 16.4675L7.43745 14.2742L8.46849 14.8575" stroke="black" stroke-width="2" stroke-linecap="round" stroke-linejoin="round"/>
<path d="M27.5625 3.16458C27.7266 3.1633 27.8876 3.20815 28.0274 3.29402C28.1672 3.37989 28.28 3.50331 28.353 3.6502L30.2152 7.31354H33.3842C33.5563 7.31367 33.7245 7.36454 33.8678 7.45978C34.0111 7.55503 34.1232 7.69042 34.19 7.84902C34.2567 8.00762 34.2753 8.18239 34.2432 8.35146C34.2112 8.52053 34.13 8.67641 34.0098 8.79958L31.099 11.6667L32.7119 15.3723C32.7851 15.5421 32.8026 15.7307 32.7619 15.9111C32.7213 16.0915 32.6245 16.2543 32.4855 16.3763C32.3466 16.4982 32.1725 16.573 31.9884 16.59C31.8043 16.6069 31.6195 16.565 31.4607 16.4704L27.5625 14.2742L26.5315 14.8575" stroke="black" stroke-width="2" stroke-linecap="round" stroke-linejoin="round"/>
<path d="M13.5027 20.8018C14.6895 21.9444 16.1146 22.8101 17.6755 23.3368C19.2365 23.8635 20.8948 24.0382 22.5312 23.8482" stroke="black" stroke-width="2" stroke-linecap="round" stroke-linejoin="round"/>
<path d="M1.11279 23.2866C3.3261 24.6084 5.90123 25.195 8.46863 24.9622" stroke="black" stroke-width="2" stroke-linecap="round" stroke-linejoin="round"/>
<path d="M26.8333 23.2866C29.0464 24.6086 31.6217 25.1953 34.1891 24.9622" stroke="black" stroke-width="2" stroke-linecap="round" stroke-linejoin="round"/>
</g>
<defs>
<clipPath id="clip0_7115_1442">
<rect width="35" height="35" fill="white"/>
</clipPath>
</defs>
</svg>
