<svg width="35" height="35" viewBox="0 0 35 35" fill="none" xmlns="http://www.w3.org/2000/svg">
<g clip-path="url(#clip0_7115_1466)">
<path d="M26.6147 11.3018C26.6147 12.172 26.9604 13.0066 27.5758 13.622C28.1912 14.2373 29.0258 14.583 29.896 14.583C30.7662 14.583 31.6008 14.2373 32.2162 13.622C32.8315 13.0066 33.1772 12.172 33.1772 11.3018C33.1772 10.4315 32.8315 9.59692 32.2162 8.98156C31.6008 8.36621 30.7662 8.02051 29.896 8.02051C29.0258 8.02051 28.1912 8.36621 27.5758 8.98156C26.9604 9.59692 26.6147 10.4315 26.6147 11.3018Z" stroke="black" stroke-width="2" stroke-linecap="round" stroke-linejoin="round"/>
<path d="M29.896 16.0415C28.7357 16.0415 27.6229 16.5024 26.8024 17.3229C25.9819 18.1434 25.521 19.2562 25.521 20.4165V24.0623H27.7085L28.4377 30.6248H31.3543L32.0835 24.0623H34.271V20.4165C34.271 19.2562 33.8101 18.1434 32.9896 17.3229C32.1691 16.5024 31.0563 16.0415 29.896 16.0415Z" stroke="black" stroke-width="2" stroke-linecap="round" stroke-linejoin="round"/>
<path d="M1.823 11.3018C1.823 11.7327 1.90787 12.1593 2.07277 12.5574C2.23767 12.9555 2.47936 13.3173 2.78405 13.622C3.08875 13.9266 3.45047 14.1683 3.84857 14.3332C4.24667 14.4981 4.67335 14.583 5.10425 14.583C5.53515 14.583 5.96183 14.4981 6.35993 14.3332C6.75803 14.1683 7.11975 13.9266 7.42444 13.622C7.72913 13.3173 7.97083 12.9555 8.13573 12.5574C8.30063 12.1593 8.3855 11.7327 8.3855 11.3018C8.3855 10.8709 8.30063 10.4442 8.13573 10.0461C7.97083 9.64798 7.72913 9.28626 7.42444 8.98156C7.11975 8.67687 6.75803 8.43518 6.35993 8.27028C5.96183 8.10538 5.53515 8.02051 5.10425 8.02051C4.67335 8.02051 4.24667 8.10538 3.84857 8.27028C3.45047 8.43518 3.08875 8.67687 2.78405 8.98156C2.47936 9.28626 2.23767 9.64798 2.07277 10.0461C1.90787 10.4442 1.823 10.8709 1.823 11.3018Z" stroke="black" stroke-width="2" stroke-linecap="round" stroke-linejoin="round"/>
<path d="M5.10425 16.0415C3.94393 16.0415 2.83113 16.5024 2.01066 17.3229C1.19018 18.1434 0.729248 19.2562 0.729248 20.4165V24.0623H2.91675L3.64591 30.6248H6.56258L7.29175 24.0623H9.47925V20.4165C9.47925 19.2562 9.01831 18.1434 8.19784 17.3229C7.37737 16.5024 6.26457 16.0415 5.10425 16.0415Z" stroke="black" stroke-width="2" stroke-linecap="round" stroke-linejoin="round"/>
<path d="M16.7708 0.729004L19.6874 3.64567L16.7708 6.56234" stroke="black" stroke-width="2" stroke-linecap="round" stroke-linejoin="round"/>
<path d="M13.125 3.64551H19.6875" stroke="black" stroke-width="2" stroke-linecap="round" stroke-linejoin="round"/>
<path d="M16.7709 28.4375L13.8542 31.3542L16.7709 34.2708" stroke="black" stroke-width="2" stroke-linecap="round" stroke-linejoin="round"/>
<path d="M20.4167 31.354H13.8542" stroke="black" stroke-width="2" stroke-linecap="round" stroke-linejoin="round"/>
<path d="M14.2626 20.0956C14.2798 20.5876 14.4414 21.0637 14.7272 21.4645C15.0131 21.8653 15.4105 22.1732 15.8701 22.3497C16.3297 22.5262 16.8311 22.5635 17.3117 22.4571C17.7924 22.3507 18.2311 22.1051 18.5732 21.7511C18.9153 21.3971 19.1457 20.9502 19.2356 20.4662C19.3255 19.9821 19.271 19.4823 19.0788 19.0291C18.8867 18.5758 18.5654 18.1891 18.155 17.9172C17.7446 17.6452 17.2633 17.5001 16.7709 17.4998C16.2536 17.5172 15.7428 17.3795 15.3042 17.1045C14.8656 16.8294 14.5193 16.4295 14.3098 15.9561C14.1002 15.4827 14.037 14.9575 14.1283 14.4479C14.2195 13.9383 14.4611 13.4676 14.8218 13.0964C15.1826 12.7251 15.6462 12.4702 16.1529 12.3644C16.6597 12.2586 17.1865 12.3067 17.6657 12.5026C18.1449 12.6985 18.5546 13.0332 18.8421 13.4637C19.1297 13.8942 19.2819 14.4008 19.2793 14.9185" stroke="black" stroke-width="2" stroke-linecap="round" stroke-linejoin="round"/>
<path d="M16.771 10.208V12.3226" stroke="black" stroke-width="2" stroke-linecap="round" stroke-linejoin="round"/>
<path d="M16.771 22.6914V24.7914" stroke="black" stroke-width="2" stroke-linecap="round" stroke-linejoin="round"/>
</g>
<defs>
<clipPath id="clip0_7115_1466">
<rect width="35" height="35" fill="white"/>
</clipPath>
</defs>
</svg>
