<svg width="35" height="35" viewBox="0 0 35 35" fill="none" xmlns="http://www.w3.org/2000/svg">
<g clip-path="url(#clip0_7115_1461)">
<path d="M7.18823 17.4608C7.18823 18.8014 7.45228 20.1288 7.9653 21.3673C8.47831 22.6059 9.23025 23.7312 10.1782 24.6792C11.1261 25.6271 12.2515 26.379 13.49 26.892C14.7285 27.4051 16.056 27.6691 17.3966 27.6691C18.7371 27.6691 20.0646 27.4051 21.3031 26.892C22.5417 26.379 23.667 25.6271 24.6149 24.6792C25.5629 23.7312 26.3148 22.6059 26.8278 21.3673C27.3409 20.1288 27.6049 18.8014 27.6049 17.4608C27.6049 16.1202 27.3409 14.7927 26.8278 13.5542C26.3148 12.3157 25.5629 11.1903 24.6149 10.2424C23.667 9.29446 22.5417 8.54252 21.3031 8.0295C20.0646 7.51649 18.7371 7.25244 17.3966 7.25244C16.056 7.25244 14.7285 7.51649 13.49 8.0295C12.2515 8.54252 11.1261 9.29446 10.1782 10.2424C9.23025 11.1903 8.47831 12.3157 7.9653 13.5542C7.45228 14.7927 7.18823 16.1202 7.18823 17.4608Z" stroke="black" stroke-width="2" stroke-linecap="round" stroke-linejoin="round"/>
<path d="M10.1047 20.3774L11.1591 18.7966C11.2663 18.6357 11.433 18.5241 11.6225 18.486C11.812 18.448 12.0088 18.4868 12.1697 18.5939L13.2052 19.2837C13.3556 19.383 13.5376 19.4231 13.7159 19.3962C13.8942 19.3692 14.0562 19.2772 14.1706 19.1378L16.8845 15.8784C16.9494 15.8006 17.0299 15.7371 17.1207 15.6921C17.2115 15.647 17.3108 15.6214 17.412 15.6169C17.5133 15.6124 17.6144 15.629 17.7089 15.6658C17.8034 15.7025 17.8892 15.7586 17.9608 15.8303L19.7487 17.6182C19.8204 17.6897 19.9062 17.7454 20.0006 17.7819C20.095 17.8184 20.1959 17.8348 20.297 17.8302C20.3981 17.8255 20.4971 17.7998 20.5878 17.7548C20.6784 17.7098 20.7587 17.6464 20.8235 17.5687L23.9589 13.8076" stroke="black" stroke-width="2" stroke-linecap="round" stroke-linejoin="round"/>
<path d="M33.6322 19.7676C33.8095 19.7454 33.9725 19.6589 34.0903 19.5245C34.208 19.3901 34.2723 19.2171 34.2709 19.0384V15.9555C34.2723 15.7768 34.208 15.6038 34.0903 15.4694C33.9725 15.335 33.8095 15.2485 33.6322 15.2263L30.3495 14.8165C30.0149 13.2087 29.379 11.6787 28.4755 10.3074L30.5099 7.68965C30.6188 7.54944 30.6729 7.37431 30.6618 7.1971C30.6508 7.0199 30.5756 6.8528 30.4501 6.72715L28.2626 4.53965C28.137 4.41421 27.9699 4.33893 27.7927 4.32792C27.6155 4.31691 27.4403 4.37094 27.3001 4.47986L24.6824 6.52153C23.3108 5.61816 21.7809 4.98188 20.1732 4.64611L19.7678 1.36778C19.7457 1.19045 19.6592 1.02744 19.5248 0.909689C19.3903 0.791937 19.2174 0.727647 19.0387 0.729026H15.9557C15.777 0.727647 15.6041 0.791937 15.4696 0.909689C15.3352 1.02744 15.2487 1.19045 15.2266 1.36778L14.8168 4.64903C13.2111 4.98549 11.6833 5.62175 10.3134 6.52444L7.69574 4.49007C7.55553 4.38114 7.3804 4.32712 7.20319 4.33813C7.02599 4.34914 6.85889 4.42442 6.73324 4.54986L4.54574 6.73736C4.4203 6.86301 4.34502 7.03011 4.33401 7.20731C4.323 7.38452 4.37703 7.55965 4.48595 7.69986L6.52762 10.3249C5.62411 11.6962 4.98828 13.2262 4.65366 14.834L1.37095 15.2438C1.19363 15.266 1.03061 15.3525 0.912863 15.4869C0.795111 15.6213 0.730821 15.7943 0.732199 15.973V19.0617C0.730821 19.2404 0.795111 19.4134 0.912863 19.5478C1.03061 19.6822 1.19363 19.7687 1.37095 19.7909L4.65366 20.2007C4.98828 21.8085 5.62411 23.3385 6.52762 24.7099L4.49032 27.3042C4.3814 27.4444 4.32738 27.6196 4.33839 27.7968C4.34939 27.974 4.42468 28.1411 4.55012 28.2667L6.73762 30.4542C6.86327 30.5797 7.03037 30.655 7.20757 30.666C7.38477 30.677 7.55991 30.6229 7.70012 30.514L10.3251 28.4796C11.6967 29.383 13.2266 30.0193 14.8343 30.3551L15.2441 33.6363C15.2662 33.8136 15.3527 33.9767 15.4871 34.0944C15.6216 34.2122 15.7945 34.2764 15.9732 34.2751H19.062C19.2407 34.2764 19.4137 34.2122 19.5481 34.0944C19.6825 33.9767 19.769 33.8136 19.7912 33.6363L20.2009 30.3551C21.8086 30.0193 23.3385 29.383 24.7101 28.4796L27.3278 30.514C27.468 30.6229 27.6432 30.677 27.8204 30.666C27.9976 30.655 28.1647 30.5797 28.2903 30.4542L30.4778 28.2667C30.6033 28.1411 30.6785 27.974 30.6896 27.7968C30.7006 27.6196 30.6465 27.4444 30.5376 27.3042L28.5032 24.6865C29.4067 23.3151 30.0426 21.7852 30.3772 20.1774L33.6322 19.7676Z" stroke="black" stroke-width="2" stroke-linecap="round" stroke-linejoin="round"/>
</g>
<defs>
<clipPath id="clip0_7115_1461">
<rect width="35" height="35" fill="white"/>
</clipPath>
</defs>
</svg>
